<svg width="20" height="20" viewBox="0 0 20 20" fill="none" xmlns="http://www.w3.org/2000/svg">
<rect x="1" y="1" width="18" height="18" rx="9" fill="#B2DDFF"/>
<path d="M10.375 10.375C10.375 10.4745 10.3355 10.5698 10.2652 10.6402C10.1948 10.7105 10.0995 10.75 10 10.75C9.90054 10.75 9.80516 10.7105 9.73484 10.6402C9.66451 10.5698 9.625 10.4745 9.625 10.375C9.625 10.2755 9.66451 10.1802 9.73484 10.1098C9.80516 10.0395 9.90054 10 10 10C10.0995 10 10.1948 10.0395 10.2652 10.1098C10.3355 10.1802 10.375 10.2755 10.375 10.375ZM7.75 11.875C7.84946 11.875 7.94484 11.8355 8.01516 11.7652C8.08549 11.6948 8.125 11.5995 8.125 11.5C8.125 11.4005 8.08549 11.3052 8.01516 11.2348C7.94484 11.1645 7.84946 11.125 7.75 11.125C7.65054 11.125 7.55516 11.1645 7.48483 11.2348C7.41451 11.3052 7.375 11.4005 7.375 11.5C7.375 11.5995 7.41451 11.6948 7.48483 11.7652C7.55516 11.8355 7.65054 11.875 7.75 11.875ZM8.125 12.625C8.125 12.7245 8.08549 12.8198 8.01516 12.8902C7.94484 12.9605 7.84946 13 7.75 13C7.65054 13 7.55516 12.9605 7.48483 12.8902C7.41451 12.8198 7.375 12.7245 7.375 12.625C7.375 12.5255 7.41451 12.4302 7.48483 12.3598C7.55516 12.2895 7.65054 12.25 7.75 12.25C7.84946 12.25 7.94484 12.2895 8.01516 12.3598C8.08549 12.4302 8.125 12.5255 8.125 12.625ZM8.875 11.875C8.97446 11.875 9.06984 11.8355 9.14016 11.7652C9.21049 11.6948 9.25 11.5995 9.25 11.5C9.25 11.4005 9.21049 11.3052 9.14016 11.2348C9.06984 11.1645 8.97446 11.125 8.875 11.125C8.77554 11.125 8.68016 11.1645 8.60984 11.2348C8.53951 11.3052 8.5 11.4005 8.5 11.5C8.5 11.5995 8.53951 11.6948 8.60984 11.7652C8.68016 11.8355 8.77554 11.875 8.875 11.875ZM9.25 12.625C9.25 12.7245 9.21049 12.8198 9.14016 12.8902C9.06984 12.9605 8.97446 13 8.875 13C8.77554 13 8.68016 12.9605 8.60984 12.8902C8.53951 12.8198 8.5 12.7245 8.5 12.625C8.5 12.5255 8.53951 12.4302 8.60984 12.3598C8.68016 12.2895 8.77554 12.25 8.875 12.25C8.97446 12.25 9.06984 12.2895 9.14016 12.3598C9.21049 12.4302 9.25 12.5255 9.25 12.625ZM10 11.875C10.0995 11.875 10.1948 11.8355 10.2652 11.7652C10.3355 11.6948 10.375 11.5995 10.375 11.5C10.375 11.4005 10.3355 11.3052 10.2652 11.2348C10.1948 11.1645 10.0995 11.125 10 11.125C9.90054 11.125 9.80516 11.1645 9.73484 11.2348C9.66451 11.3052 9.625 11.4005 9.625 11.5C9.625 11.5995 9.66451 11.6948 9.73484 11.7652C9.80516 11.8355 9.90054 11.875 10 11.875ZM10.375 12.625C10.375 12.7245 10.3355 12.8198 10.2652 12.8902C10.1948 12.9605 10.0995 13 10 13C9.90054 13 9.80516 12.9605 9.73484 12.8902C9.66451 12.8198 9.625 12.7245 9.625 12.625C9.625 12.5255 9.66451 12.4302 9.73484 12.3598C9.80516 12.2895 9.90054 12.25 10 12.25C10.0995 12.25 10.1948 12.2895 10.2652 12.3598C10.3355 12.4302 10.375 12.5255 10.375 12.625ZM11.125 11.875C11.2245 11.875 11.3198 11.8355 11.3902 11.7652C11.4605 11.6948 11.5 11.5995 11.5 11.5C11.5 11.4005 11.4605 11.3052 11.3902 11.2348C11.3198 11.1645 11.2245 11.125 11.125 11.125C11.0255 11.125 10.9302 11.1645 10.8598 11.2348C10.7895 11.3052 10.75 11.4005 10.75 11.5C10.75 11.5995 10.7895 11.6948 10.8598 11.7652C10.9302 11.8355 11.0255 11.875 11.125 11.875ZM11.5 12.625C11.5 12.7245 11.4605 12.8198 11.3902 12.8902C11.3198 12.9605 11.2245 13 11.125 13C11.0255 13 10.9302 12.9605 10.8598 12.8902C10.7895 12.8198 10.75 12.7245 10.75 12.625C10.75 12.5255 10.7895 12.4302 10.8598 12.3598C10.9302 12.2895 11.0255 12.25 11.125 12.25C11.2245 12.25 11.3198 12.2895 11.3902 12.3598C11.4605 12.4302 11.5 12.5255 11.5 12.625ZM12.25 11.875C12.3495 11.875 12.4448 11.8355 12.5152 11.7652C12.5855 11.6948 12.625 11.5995 12.625 11.5C12.625 11.4005 12.5855 11.3052 12.5152 11.2348C12.4448 11.1645 12.3495 11.125 12.25 11.125C12.1505 11.125 12.0552 11.1645 11.9848 11.2348C11.9145 11.3052 11.875 11.4005 11.875 11.5C11.875 11.5995 11.9145 11.6948 11.9848 11.7652C12.0552 11.8355 12.1505 11.875 12.25 11.875ZM11.5 10.375C11.5 10.4745 11.4605 10.5698 11.3902 10.6402C11.3198 10.7105 11.2245 10.75 11.125 10.75C11.0255 10.75 10.9302 10.7105 10.8598 10.6402C10.7895 10.5698 10.75 10.4745 10.75 10.375C10.75 10.2755 10.7895 10.1802 10.8598 10.1098C10.9302 10.0395 11.0255 10 11.125 10C11.2245 10 11.3198 10.0395 11.3902 10.1098C11.4605 10.1802 11.5 10.2755 11.5 10.375ZM12.25 10.75C12.3495 10.75 12.4448 10.7105 12.5152 10.6402C12.5855 10.5698 12.625 10.4745 12.625 10.375C12.625 10.2755 12.5855 10.1802 12.5152 10.1098C12.4448 10.0395 12.3495 10 12.25 10C12.1505 10 12.0552 10.0395 11.9848 10.1098C11.9145 10.1802 11.875 10.2755 11.875 10.375C11.875 10.4745 11.9145 10.5698 11.9848 10.6402C12.0552 10.7105 12.1505 10.75 12.25 10.75Z" fill="#0086C9"/>
<path fill-rule="evenodd" clip-rule="evenodd" d="M7.375 5.125C7.47446 5.125 7.56984 5.16451 7.64017 5.23483C7.71049 5.30516 7.75 5.40054 7.75 5.5V6.25H12.25V5.5C12.25 5.40054 12.2895 5.30516 12.3598 5.23483C12.4302 5.16451 12.5255 5.125 12.625 5.125C12.7245 5.125 12.8198 5.16451 12.8902 5.23483C12.9605 5.30516 13 5.40054 13 5.5V6.25H13.375C13.7728 6.25 14.1544 6.40804 14.4357 6.68934C14.717 6.97064 14.875 7.35218 14.875 7.75V13.375C14.875 13.7728 14.717 14.1544 14.4357 14.4357C14.1544 14.717 13.7728 14.875 13.375 14.875H6.625C6.22718 14.875 5.84564 14.717 5.56434 14.4357C5.28304 14.1544 5.125 13.7728 5.125 13.375V7.75C5.125 7.35218 5.28304 6.97064 5.56434 6.68934C5.84564 6.40804 6.22718 6.25 6.625 6.25H7V5.5C7 5.40054 7.03951 5.30516 7.10983 5.23483C7.18016 5.16451 7.27554 5.125 7.375 5.125ZM14.125 9.625C14.125 9.42609 14.046 9.23532 13.9053 9.09467C13.7647 8.95402 13.5739 8.875 13.375 8.875H6.625C6.42609 8.875 6.23532 8.95402 6.09467 9.09467C5.95402 9.23532 5.875 9.42609 5.875 9.625V13.375C5.875 13.5739 5.95402 13.7647 6.09467 13.9053C6.23532 14.046 6.42609 14.125 6.625 14.125H13.375C13.5739 14.125 13.7647 14.046 13.9053 13.9053C14.046 13.7647 14.125 13.5739 14.125 13.375V9.625Z" fill="#0086C9"/>
<rect x="1" y="1" width="18" height="18" rx="9" stroke="#D1E9FF" stroke-width="2"/>
</svg>
