<svg width="20" height="20" viewBox="0 0 20 20" fill="none" xmlns="http://www.w3.org/2000/svg">
<rect x="1" y="1" width="18" height="18" rx="9" fill="#B2DDFF"/>
<path d="M5.125 5.125C5.02554 5.125 4.93016 5.16451 4.85983 5.23483C4.78951 5.30516 4.75 5.40054 4.75 5.5C4.75 5.59946 4.78951 5.69484 4.85983 5.76517C4.93016 5.83549 5.02554 5.875 5.125 5.875H5.818C5.903 5.875 5.977 5.932 5.999 6.014L7.278 10.81C6.87629 10.9147 6.52063 11.1496 6.26675 11.4781C6.01286 11.8065 5.87509 12.2099 5.875 12.625C5.875 12.832 6.043 13 6.25 13H14.125C14.2245 13 14.3198 12.9605 14.3902 12.8902C14.4605 12.8198 14.5 12.7245 14.5 12.625C14.5 12.5255 14.4605 12.4302 14.3902 12.3598C14.3198 12.2895 14.2245 12.25 14.125 12.25H6.689C6.76657 12.0306 6.91026 11.8407 7.10028 11.7063C7.2903 11.572 7.5173 11.4999 7.75 11.5H13.359C13.4293 11.5 13.4981 11.4803 13.5577 11.4431C13.6173 11.4058 13.6652 11.3526 13.696 11.2895C14.2668 10.1181 14.7612 8.91086 15.176 7.6755C15.1924 7.62663 15.1985 7.57491 15.194 7.52356C15.1895 7.47221 15.1745 7.42234 15.1499 7.37706C15.1252 7.33179 15.0915 7.29207 15.0509 7.2604C15.0102 7.22873 14.9634 7.20579 14.9135 7.193C12.2764 6.52058 9.56102 6.20493 6.84 6.2545L6.724 5.821C6.67078 5.62137 6.55311 5.44491 6.38927 5.31905C6.22543 5.19319 6.0246 5.12497 5.818 5.125H5.125ZM5.875 14.125C5.875 13.9261 5.95402 13.7353 6.09467 13.5947C6.23532 13.454 6.42609 13.375 6.625 13.375C6.82391 13.375 7.01468 13.454 7.15533 13.5947C7.29598 13.7353 7.375 13.9261 7.375 14.125C7.375 14.3239 7.29598 14.5147 7.15533 14.6553C7.01468 14.796 6.82391 14.875 6.625 14.875C6.42609 14.875 6.23532 14.796 6.09467 14.6553C5.95402 14.5147 5.875 14.3239 5.875 14.125ZM12.25 14.125C12.25 13.9261 12.329 13.7353 12.4697 13.5947C12.6103 13.454 12.8011 13.375 13 13.375C13.1989 13.375 13.3897 13.454 13.5303 13.5947C13.671 13.7353 13.75 13.9261 13.75 14.125C13.75 14.3239 13.671 14.5147 13.5303 14.6553C13.3897 14.796 13.1989 14.875 13 14.875C12.8011 14.875 12.6103 14.796 12.4697 14.6553C12.329 14.5147 12.25 14.3239 12.25 14.125Z" fill="#0086C9"/>
<rect x="1" y="1" width="18" height="18" rx="9" stroke="#D1E9FF" stroke-width="2"/>
</svg>
