<svg width="20" height="20" viewBox="0 0 20 20" fill="none" xmlns="http://www.w3.org/2000/svg">
<rect x="1" y="1" width="18" height="18" rx="9" fill="#B2DDFF"/>
<path d="M5.6875 6.25C5.1695 6.25 4.75 6.67 4.75 7.1875V10.75H10.75V7.1875C10.75 6.6695 10.33 6.25 9.8125 6.25H5.6875ZM10.75 11.5H4.75V12.8125C4.75 13.33 5.17 13.75 5.6875 13.75H5.875C5.875 13.3522 6.03304 12.9706 6.31434 12.6893C6.59564 12.408 6.97718 12.25 7.375 12.25C7.77282 12.25 8.15436 12.408 8.43566 12.6893C8.71696 12.9706 8.875 13.3522 8.875 13.75H10.375C10.4745 13.75 10.5698 13.7105 10.6402 13.6402C10.7105 13.5698 10.75 13.4745 10.75 13.375V11.5Z" fill="#0086C9"/>
<path d="M8.125 13.75C8.125 13.5511 8.04598 13.3603 7.90533 13.2197C7.76468 13.079 7.57391 13 7.375 13C7.17609 13 6.98532 13.079 6.84467 13.2197C6.70402 13.3603 6.625 13.5511 6.625 13.75C6.625 13.9489 6.70402 14.1397 6.84467 14.2803C6.98532 14.421 7.17609 14.5 7.375 14.5C7.57391 14.5 7.76468 14.421 7.90533 14.2803C8.04598 14.1397 8.125 13.9489 8.125 13.75ZM11.875 7.37501C11.7755 7.37501 11.6802 7.41452 11.6098 7.48484C11.5395 7.55517 11.5 7.65055 11.5 7.75001V13.375C11.5 13.4185 11.5075 13.46 11.521 13.499C11.5833 13.1296 11.7816 12.7969 12.0769 12.5663C12.3722 12.3357 12.7431 12.224 13.1166 12.253C13.4901 12.2821 13.8392 12.4499 14.0952 12.7235C14.3512 12.997 14.4956 13.3564 14.5 13.731C14.9265 13.6435 15.261 13.2635 15.232 12.7895C15.1202 10.9587 14.4711 9.20146 13.366 7.73751C13.2799 7.62431 13.1687 7.53264 13.0412 7.46974C12.9136 7.40683 12.7732 7.37441 12.631 7.37501H11.875Z" fill="#0086C9"/>
<path d="M13.75 13.75C13.75 13.5511 13.671 13.3603 13.5303 13.2197C13.3897 13.079 13.1989 13 13 13C12.8011 13 12.6103 13.079 12.4697 13.2197C12.329 13.3603 12.25 13.5511 12.25 13.75C12.25 13.9489 12.329 14.1397 12.4697 14.2803C12.6103 14.421 12.8011 14.5 13 14.5C13.1989 14.5 13.3897 14.421 13.5303 14.2803C13.671 14.1397 13.75 13.9489 13.75 13.75Z" fill="#0086C9"/>
<rect x="1" y="1" width="18" height="18" rx="9" stroke="#D1E9FF" stroke-width="2"/>
</svg>
